<?xml version="1.0" encoding="UTF-8" standalone="no"?>
<!-- Created with Inkscape (http://www.inkscape.org/) -->

<svg
   version="1.1"
   id="svg1"
   width="145"
   height="145"
   viewBox="0 0 145 145"
   xmlns="http://www.w3.org/2000/svg"
   xmlns:svg="http://www.w3.org/2000/svg">
  <path
     style="fill:#202020;fill-opacity:1;stroke-width:1"
     d="m 59.713766,119.16363 c 2.17199,-3.35129 3.967084,-4.6304 17.157079,-12.22546 C 101.8119,92.576605 108.4295,88.699982 109.1352,88.037499 c 4.10583,-3.854408 1.76226,-12.749814 -5.51791,-12.302274 -2.09575,0.12884 -1.64443,-0.09474 -12.578495,6.231696 C 46.457026,107.76192 23.720441,120.72572 22.062707,121.29526 6.5288928,126.63228 -7.9613318,106.20813 5.0387314,93.364721 7.0870798,91.341049 8.6932819,90.331474 22.282833,82.525897 30.524768,77.791881 40.28637,72.184832 43.975265,70.065783 61.126481,60.213461 83.621246,47.168 84.355578,46.647896 89.497634,43.005982 86.349513,32.138736 78.331452,33.934305 77.480348,34.124901 68.508917,39.118361 55.041572,46.897339 41.657043,54.628488 32.267412,59.85574 30.90292,60.335428 28.150707,61.302962 23.588685,61.42474 20.927034,60.601716 15.610512,58.957771 11.470608,55.068646 9.638438,49.996953 8.7968847,47.667393 8.5136419,43.345452 9.0373285,40.824718 9.8135917,37.088203 12.600738,32.777719 15.552799,30.748139 16.817866,29.878393 36.439588,18.496453 54.106325,8.3844781 58.621441,5.8001359 63.431533,3.2598663 64.795397,2.7394434 84.798003,-4.8932204 107.2653,3.9596379 116.52837,22.636724 c 2.97648,6.001451 4.23786,11.409007 4.25073,18.223051 l 0.009,4.558263 c 10.8511,4.896031 18.39206,14.035849 22.38072,25.098781 1.70253,5.422002 4.83848,20.264825 -5.27595,35.599461 -1.97413,2.993 -6.89978,8.05122 -9.84699,10.11202 -1.84384,1.28928 -43.374031,25.39385 -46.476342,26.97537 -15.474958,7.52409 -30.855835,-10.15334 -21.855742,-24.04004 z"
     id="bm-logo" />
</svg>
