<?xml version="1.0" encoding="UTF-8" standalone="no"?>
<!-- Created with Inkscape (http://www.inkscape.org/) -->

<svg
   version="1.1"
   id="svg1"
   width="145"
   height="145"
   viewBox="0 0 145 145"
   xmlns="http://www.w3.org/2000/svg"
   xmlns:svg="http://www.w3.org/2000/svg">
  <defs
     id="defs1" />
  <rect
     style="fill:#ffffff;fill-opacity:1;stroke:#ffffff;stroke-width:1.1524;stroke-dasharray:none;stroke-opacity:1"
     id="rect4"
     width="115.2395"
     height="115.23949"
     x="14.880249"
     y="14.880257"
     ry="17.943275" />
  <path
     style="fill:#202020;fill-opacity:1;stroke-width:0.802703"
     d="m 62.236458,109.95703 c 1.743462,-2.69009 3.184389,-3.71684 13.772033,-9.81341 20.020253,-11.528073 25.332219,-14.63985 25.898689,-15.171627 3.29576,-3.093943 1.41457,-10.23431 -4.429245,-9.875068 -1.682264,0.10342 -1.319988,-0.07605 -10.096792,5.002199 C 51.595237,100.80484 33.344519,111.21092 32.013851,111.66809 19.544817,115.95213 7.9134747,99.557607 18.34866,89.248167 c 1.644215,-1.62441 2.933518,-2.43479 13.841887,-8.700351 6.615823,-3.800008 14.451488,-8.300801 17.412574,-10.001767 13.767327,-7.908486 31.823936,-18.380113 32.413386,-18.797602 4.127542,-2.923374 1.600537,-11.646541 -4.835582,-10.205233 -0.683184,0.152992 -7.884576,4.161255 -18.69485,10.405462 -10.743797,6.205814 -18.280879,10.401743 -19.376161,10.78679 -2.209209,0.776642 -5.871156,0.874394 -8.007671,0.21375 -4.267586,-1.319599 -7.590698,-4.44141 -9.061386,-8.512471 -0.675517,-1.869945 -0.902876,-5.339178 -0.482512,-7.362578 0.623109,-2.999311 2.860358,-6.459348 5.229986,-8.088497 1.015472,-0.698148 16.765881,-9.834462 30.947019,-17.951371 3.624296,-2.074459 7.485369,-4.11354 8.580147,-4.531285 16.056146,-6.12676 34.090703,0.979454 41.526193,15.971601 2.38923,4.817381 3.40175,9.158041 3.41208,14.627692 l 0.007,3.65893 c 8.7102,3.930057 14.76335,11.266614 17.96506,20.146859 1.36662,4.352256 3.88386,16.266631 -4.23502,28.575781 -1.58464,2.402493 -5.53847,6.462743 -7.90421,8.116953 -1.48005,1.03491 -34.816447,20.38371 -37.30668,21.6532 -12.421791,6.03961 -24.768062,-8.15011 -17.543663,-19.297 z"
     id="path1" />
</svg>
